<svg width="165" height="54" viewBox="0 0 165 54" fill="none" xmlns="http://www.w3.org/2000/svg">
<path fill-rule="evenodd" clip-rule="evenodd" d="M118.738 11.7625C98.1513 -3.87346 72.3689 -3.3095 5.39697 9.8349C29.6139 6.92396 39.7625 8.51425 62.0957 12.0138C75.2658 14.0776 92.6733 16.8053 119.702 19.6655C125.292 11.9509 137.821 14.0713 142.062 24.6729C142.062 24.6729 141.675 20.5822 142.062 18.8945C142.448 17.2068 160.374 26.0265 160.374 26.0265C160.374 26.0265 139.17 12.5335 123.75 12.5335C120.101 12.5335 115.076 16.0031 115.076 16.0031L50.8876 9.06388C50.8876 9.06388 47.5981 6.69697 49.5383 4.82322C51.4785 2.94947 96.6366 -3.01544 118.738 11.7625ZM8.87659 17.4171C8.74426 17.5211 8.61239 17.6266 8.48099 17.7338H8.28823C8.48612 17.6264 8.68219 17.5208 8.87659 17.4171ZM28.5277 16.3845C22.0523 11.2631 14.9771 12.6249 8.87659 17.4171C15.3098 13.9869 19.921 12.6652 28.5277 16.3845ZM94.6434 9.44942C99.5031 8.01639 103.125 8.10012 103.703 9.44942C104.281 10.7987 101.968 12.7263 101.968 12.7263C101.968 12.7263 102.898 9.9753 101.775 9.83493C98.6913 9.44942 94.6434 9.44942 94.6434 9.44942Z" fill="#3563E9"/>
<path d="M14.8973 44.9453H6.24578L4.78881 47.8818H0.112944L8.23359 32.3634H12.9094L21.0301 47.8818H16.3542L14.8973 44.9453ZM7.74793 41.9184H13.4177L10.5941 36.2035L7.74793 41.9184ZM27.7615 35.6726V38.372H37.8474V41.6812H27.7615V47.8818H23.5713V32.3634H38.4008V35.6726H27.7615ZM46.1713 47.8818H41.9811V32.3634H52.4849C53.6143 32.3634 54.5706 32.4801 55.3536 32.7135C56.1442 32.9469 56.7843 33.2782 57.2737 33.7074C57.7706 34.1366 58.1283 34.6561 58.3466 35.266C58.5725 35.8684 58.6855 36.5423 58.6855 37.2877C58.6855 37.9428 58.5914 38.515 58.4031 39.0045C58.2224 39.4939 57.9739 39.9155 57.6577 40.2694C57.349 40.6158 56.9876 40.9095 56.5734 41.1504C56.1593 41.3913 55.7226 41.5909 55.2633 41.749L60.3457 47.8818H55.444L50.7455 42.1669H46.1713V47.8818ZM54.4501 37.2651C54.4501 36.964 54.4087 36.708 54.3259 36.4971C54.2506 36.2863 54.115 36.1169 53.9193 35.9889C53.7235 35.8533 53.46 35.7555 53.1287 35.6952C52.8049 35.635 52.3983 35.6049 51.9089 35.6049H46.1713V38.9254H51.9089C52.3983 38.9254 52.8049 38.8953 53.1287 38.8351C53.46 38.7748 53.7235 38.6807 53.9193 38.5527C54.115 38.4172 54.2506 38.244 54.3259 38.0332C54.4087 37.8223 54.4501 37.5663 54.4501 37.2651ZM63.35 47.8818V32.3634H79.0605V35.6726H67.6532V38.2365H78.4732V41.5457H67.6532V44.5726H79.2186V47.8818H63.35ZM83.2733 47.8818V32.3634H98.9837V35.6726H87.5764V38.2365H98.3964V41.5457H87.5764V44.5726H99.1419V47.8818H83.2733ZM107.409 38.2816L115.993 32.3634H121.606L111.159 39.8064L122.307 47.8818H116.196L107.409 41.4328V47.8818H103.197V32.3634H107.409V38.2816ZM137.215 44.9453H128.564L127.107 47.8818H122.431L130.551 32.3634H135.227L143.348 47.8818H138.672L137.215 44.9453ZM130.066 41.9184H135.736L132.912 36.2035L130.066 41.9184ZM150.079 47.8818H145.889V32.3634H156.393C157.522 32.3634 158.479 32.4801 159.262 32.7135C160.052 32.9469 160.692 33.2782 161.182 33.7074C161.679 34.1366 162.036 34.6561 162.255 35.266C162.481 35.8684 162.594 36.5423 162.594 37.2877C162.594 37.9428 162.499 38.515 162.311 39.0045C162.13 39.4939 161.882 39.9155 161.566 40.2694C161.257 40.6158 160.896 40.9095 160.482 41.1504C160.067 41.3913 159.631 41.5909 159.171 41.749L164.254 47.8818H159.352L154.654 42.1669H150.079V47.8818ZM158.358 37.2651C158.358 36.964 158.317 36.708 158.234 36.4971C158.159 36.2863 158.023 36.1169 157.827 35.9889C157.632 35.8533 157.368 35.7555 157.037 35.6952C156.713 35.635 156.306 35.6049 155.817 35.6049H150.079V38.9254H155.817C156.306 38.9254 156.713 38.8953 157.037 38.8351C157.368 38.7748 157.632 38.6807 157.827 38.5527C158.023 38.4172 158.159 38.244 158.234 38.0332C158.317 37.8223 158.358 37.5663 158.358 37.2651Z" fill="#3563E9"/>
</svg>
